<?xml version="1.0" encoding="utf-8"?>
<!-- Generator: Adobe Illustrator 17.0.0, SVG Export Plug-In . SVG Version: 6.00 Build 0)  -->
<!DOCTYPE svg PUBLIC "-//W3C//DTD SVG 1.1//EN" "http://www.w3.org/Graphics/SVG/1.1/DTD/svg11.dtd">
<svg version="1.1" id="Layer_1" xmlns="http://www.w3.org/2000/svg" xmlns:xlink="http://www.w3.org/1999/xlink" x="0px" y="0px"
	 width="24px" height="24px" viewBox="0 0 24 24" enable-background="new 0 0 24 24" xml:space="preserve">
<rect display="none" fill="#A33838" width="24" height="24"/>
<g>
	<g>
		<path fill="#010101" d="M18.924,23.998c-0.998,0-2.204-0.25-3.53-0.75c-2.908-1.097-6.07-3.263-8.907-6.099
			S1.486,11.149,0.389,8.24C-0.61,5.597-0.612,3.427,0.381,2.435C0.524,2.291,0.67,2.138,0.82,1.98
			c0.906-0.952,1.955-2.035,3.287-1.976c0.936,0.039,1.843,0.62,2.772,1.774c2.741,3.41,1.505,4.626,0.075,6.035l-0.253,0.25
			c-0.234,0.234-0.677,1.317,3.438,5.432c1.345,1.344,2.489,2.327,3.404,2.922c0.577,0.375,1.607,0.939,2.029,0.517l0.254-0.257
			c1.408-1.429,2.623-2.66,6.032,0.08c1.155,0.928,1.735,1.835,1.774,2.772c0.056,1.358-1.026,2.384-1.98,3.29
			c-0.157,0.149-0.31,0.294-0.452,0.436C20.707,23.75,19.919,23.998,18.924,23.998z M4.012,0.808c-0.964,0-1.835,0.917-2.606,1.727
			C1.25,2.699,1.099,2.858,0.951,3.005C0.212,3.744,0.288,5.687,1.143,7.956c1.057,2.803,3.158,5.865,5.915,8.623
			s5.819,4.857,8.621,5.915c2.269,0.856,4.212,0.931,4.952,0.19c0.148-0.147,0.305-0.297,0.467-0.45
			c0.83-0.789,1.77-1.681,1.73-2.672c-0.028-0.68-0.524-1.412-1.474-2.175c-2.841-2.283-3.635-1.475-4.952-0.142l-0.258,0.261
			c-0.627,0.63-1.65,0.492-3.04-0.412c-0.96-0.625-2.15-1.644-3.534-3.028l0,0C6.155,10.65,5.062,8.562,6.131,7.491l0.257-0.255
			c1.338-1.317,2.145-2.112-0.138-4.953C5.487,1.335,4.755,0.839,4.075,0.81C4.054,0.809,4.032,0.808,4.012,0.808z"/>
	</g>
	<g>
		<path fill="#010101" d="M19.066,9.919c-0.051,0-0.102-0.01-0.152-0.03c-0.207-0.084-0.307-0.319-0.222-0.525
			c0.513-1.266,0.22-2.708-0.746-3.674c-0.992-0.992-2.517-1.267-3.796-0.693c-0.201,0.091-0.442,0.002-0.534-0.201
			c-0.092-0.203-0.002-0.442,0.201-0.534c1.583-0.717,3.471-0.372,4.699,0.857c1.195,1.195,1.558,2.98,0.923,4.547
			C19.376,9.823,19.225,9.919,19.066,9.919z"/>
		<path fill="#010101" d="M22.669,11.382c-0.051,0-0.102-0.01-0.152-0.03c-0.207-0.084-0.307-0.319-0.222-0.525
			c1.102-2.718,0.475-5.813-1.599-7.886c-2.129-2.129-5.404-2.726-8.148-1.486c-0.203,0.089-0.442,0.002-0.534-0.202
			c-0.091-0.204-0.002-0.443,0.202-0.535c3.049-1.377,6.685-0.714,9.051,1.651c2.304,2.304,3.001,5.742,1.776,8.761
			C22.979,11.286,22.828,11.382,22.669,11.382z"/>
	</g>
</g>
</svg>
