<?xml version="1.0" encoding="utf-8"?>
<!-- Generator: Adobe Illustrator 17.0.0, SVG Export Plug-In . SVG Version: 6.00 Build 0)  -->
<!DOCTYPE svg PUBLIC "-//W3C//DTD SVG 1.1//EN" "http://www.w3.org/Graphics/SVG/1.1/DTD/svg11.dtd">
<svg version="1.1" id="Layer_1" xmlns="http://www.w3.org/2000/svg" xmlns:xlink="http://www.w3.org/1999/xlink" x="0px" y="0px"
	 width="24px" height="24px" viewBox="0 0 24 24" enable-background="new 0 0 24 24" xml:space="preserve">
<rect display="none" fill="#A33838" width="24" height="24"/>
<g>
	<g>
		<path fill="#010101" d="M19.432,16.647c-0.095,0-0.19-0.035-0.265-0.105l-4.453-4.177c-0.156-0.145-0.163-0.391-0.017-0.546
			c0.146-0.157,0.39-0.164,0.547-0.017l4.453,4.177c0.156,0.145,0.163,0.391,0.017,0.546C19.638,16.606,19.535,16.647,19.432,16.647
			z"/>
		<path fill="#010101" d="M4.568,16.647c-0.103,0-0.206-0.041-0.282-0.122c-0.146-0.156-0.139-0.401,0.017-0.546l4.455-4.177
			c0.156-0.145,0.402-0.139,0.547,0.017c0.146,0.156,0.139,0.401-0.017,0.546l-4.455,4.177C4.758,16.612,4.663,16.647,4.568,16.647z
			"/>
	</g>
	<path fill="#010101" d="M22.065,20.531H1.935C0.868,20.531,0,19.663,0,18.596V5.404c0-1.067,0.868-1.935,1.935-1.935h20.131
		C23.132,3.469,24,4.337,24,5.404v13.193C24,19.663,23.132,20.531,22.065,20.531z M1.935,4.243c-0.64,0-1.161,0.521-1.161,1.161
		v13.193c0,0.64,0.521,1.161,1.161,1.161h20.131c0.64,0,1.161-0.521,1.161-1.161V5.404c0-0.64-0.521-1.161-1.161-1.161H1.935z"/>
	<path fill="#010101" d="M12,13.944c-0.515,0-1.029-0.171-1.421-0.512L0.642,4.764c-0.161-0.14-0.178-0.385-0.038-0.546
		C0.746,4.056,0.99,4.042,1.151,4.18l9.937,8.668c0.495,0.431,1.33,0.431,1.824,0l9.924-8.654c0.16-0.14,0.404-0.125,0.546,0.037
		c0.14,0.162,0.124,0.406-0.037,0.546l-9.924,8.654C13.029,13.773,12.515,13.944,12,13.944z"/>
</g>
</svg>
