<?xml version="1.0" encoding="utf-8"?>
<!-- Generator: Adobe Illustrator 17.0.0, SVG Export Plug-In . SVG Version: 6.00 Build 0)  -->
<!DOCTYPE svg PUBLIC "-//W3C//DTD SVG 1.1//EN" "http://www.w3.org/Graphics/SVG/1.1/DTD/svg11.dtd">
<svg version="1.1" id="Layer_1" xmlns="http://www.w3.org/2000/svg" xmlns:xlink="http://www.w3.org/1999/xlink" x="0px" y="0px"
	 width="106px" height="106px" viewBox="0 0 106 106" enable-background="new 0 0 106 106" xml:space="preserve">
<rect display="none" fill="#7355A3" width="106" height="106"/>
<path fill="#060507" d="M12.678,59.251H1.542c-0.847,0-1.535,0.7-1.535,1.547v32.27c0,0.847,0.689,1.535,1.535,1.535h11.137
	c0.847,0,1.535-0.689,1.535-1.535v-32.27C14.219,59.951,13.531,59.251,12.678,59.251z"/>
<path fill="#060507" d="M104.453,59.251H93.316c-0.847,0-1.53,0.7-1.53,1.547v32.27c0,0.847,0.683,1.535,1.53,1.535h11.137
	c0.858,0,1.541-0.689,1.541-1.535v-32.27C105.994,59.951,105.311,59.251,104.453,59.251z"/>
<path fill="#060507" d="M33.349,40.805H22.212c-0.847,0-1.541,0.689-1.541,1.541v50.71c0,0.847,0.694,1.535,1.541,1.535h11.137
	c0.852,0,1.541-0.689,1.541-1.535v-50.71C34.89,41.488,34.201,40.805,33.349,40.805z"/>
<path fill="#060507" d="M80.559,40.805H69.423c-0.847,0-1.53,0.689-1.53,1.541v50.71c0,0.847,0.683,1.535,1.53,1.535h11.137
	c0.858,0,1.541-0.689,1.541-1.535v-50.71C82.106,41.488,81.423,40.805,80.559,40.805z"/>
<path fill="#060507" d="M56.508,52.038H45.366c-0.847,0-1.535,0.694-1.535,1.535v39.478c0,0.847,0.689,1.535,1.535,1.535h11.142
	c0.858,0,1.541-0.689,1.541-1.535V53.573C58.049,52.732,57.366,52.038,56.508,52.038z"/>
<path fill="#0B9B49" d="M7.113,39.219c3.279,0,5.932-2.653,5.932-5.932c0-0.57-0.107-1.106-0.26-1.626l12.48-8.98
	c0.768,0.361,1.614,0.576,2.517,0.576c1.744,0,3.291-0.762,4.38-1.959l11.78,6.819c-0.068,0.35-0.113,0.711-0.113,1.072
	c0,3.274,2.659,5.932,5.932,5.932c3.155,0,5.712-2.472,5.893-5.582l15.884-4.645c1.078,1.479,2.811,2.455,4.787,2.455
	c1.31,0,2.501-0.435,3.483-1.157l13.349,9.054c-0.113,0.468-0.209,0.96-0.209,1.468c0,3.279,2.659,5.938,5.932,5.938
	c3.274,0,5.944-2.659,5.944-5.938c0-3.279-2.67-5.932-5.944-5.932c-1.31,0-2.501,0.435-3.483,1.151l-13.338-9.037
	c0.113-0.474,0.198-0.96,0.198-1.468c0-3.279-2.647-5.932-5.932-5.932c-3.155,0-5.712,2.472-5.899,5.582l-15.878,4.64
	c-1.078-1.485-2.817-2.455-4.787-2.455c-1.462,0-2.777,0.542-3.81,1.417l-12.26-7.106c0-0.085,0.023-0.158,0.023-0.237
	c0-3.279-2.653-5.938-5.932-5.938s-5.932,2.653-5.932,5.932c0,0.892,0.214,1.727,0.564,2.489L10.477,28.41
	c-0.954-0.666-2.111-1.056-3.364-1.056c-3.279,0-5.932,2.659-5.932,5.932C1.18,36.566,3.833,39.219,7.113,39.219z"/>
</svg>
