<?xml version="1.0" encoding="utf-8"?>
<!-- Generator: Adobe Illustrator 17.0.0, SVG Export Plug-In . SVG Version: 6.00 Build 0)  -->
<!DOCTYPE svg PUBLIC "-//W3C//DTD SVG 1.1//EN" "http://www.w3.org/Graphics/SVG/1.1/DTD/svg11.dtd">
<svg version="1.1" id="Layer_1" xmlns="http://www.w3.org/2000/svg" xmlns:xlink="http://www.w3.org/1999/xlink" x="0px" y="0px"
	 width="14px" height="14px" viewBox="0 0 14 14" enable-background="new 0 0 14 14" xml:space="preserve">
<path id="XMLID_102_" fill="#C7C7C7" d="M13.364,0H0.636C0.285,0,0,0.285,0,0.636v12.727C0,13.715,0.285,14,0.636,14h12.727
	C13.715,14,14,13.715,14,13.364V0.636C14,0.285,13.715,0,13.364,0z M12.727,12.727H1.273V1.273h11.455V12.727z"/>
<path id="XMLID_105_" fill="#019B29" d="M4.615,10.327c0.119,0.119,0.281,0.186,0.45,0.186s0.331-0.067,0.45-0.186l5.754-5.754
	c0.249-0.249,0.249-0.651,0-0.9c-0.248-0.249-0.651-0.249-0.9,0L5.065,8.977L3.632,7.544c-0.249-0.249-0.651-0.248-0.9,0
	c-0.249,0.249-0.249,0.651,0,0.9L4.615,10.327z"/>
</svg>
