<?xml version="1.0" encoding="utf-8"?>
<!-- Generator: Adobe Illustrator 17.0.0, SVG Export Plug-In . SVG Version: 6.00 Build 0)  -->
<!DOCTYPE svg PUBLIC "-//W3C//DTD SVG 1.1//EN" "http://www.w3.org/Graphics/SVG/1.1/DTD/svg11.dtd">
<svg version="1.1" id="Layer_1" xmlns="http://www.w3.org/2000/svg" xmlns:xlink="http://www.w3.org/1999/xlink" x="0px" y="0px"
	 width="850.394px" height="238.269px" viewBox="0 0 850.394 238.269" enable-background="new 0 0 850.394 238.269"
	 xml:space="preserve">
<g>
	<g>
		<path fill="#28B67A" d="M378.857,106.895l-36.589,36.589c-6.419,6.419-16.865,6.419-23.284,0c-6.419-6.419-6.419-16.865,0-23.284
			c6.419-6.419,16.865-6.419,23.284,0l0,0l13.305-13.305l0,0c-13.778-13.778-36.116-13.778-49.894,0s-13.778,36.116,0,49.894l0,0
			c13.778,13.778,36.116,13.778,49.894,0l11.642-11.642l13.305-13.305l11.642-11.642c6.419-6.419,16.865-6.419,23.284,0
			c6.419,6.419,6.419,16.865,0,23.284c-6.419,6.419-16.865,6.419-23.284,0l-13.305,13.305c13.778,13.778,36.116,13.778,49.894,0
			s13.778-36.116,0-49.894l0,0C414.973,93.117,392.635,93.117,378.857,106.895z"/>
		<linearGradient id="SVGID_1_" gradientUnits="userSpaceOnUse" x1="387.0571" y1="151.6841" x2="372.587" y2="137.214">
			<stop  offset="0" style="stop-color:#28B67A"/>
			<stop  offset="0.292" style="stop-color:#27B378"/>
			<stop  offset="0.4889" style="stop-color:#23AA72"/>
			<stop  offset="0.6578" style="stop-color:#1C9B67"/>
			<stop  offset="0.8108" style="stop-color:#128658"/>
			<stop  offset="0.952" style="stop-color:#056A45"/>
			<stop  offset="1" style="stop-color:#005F3D"/>
		</linearGradient>
		<polygon fill="url(#SVGID_1_)" points="380.52,131.842 367.215,145.147 378.857,156.789 392.162,143.484 		"/>
		<g>
			<path fill="#273747" d="M70.579,131.663v-0.258c0-19.543,13.848-35.589,33.388-35.589c21.741,0,32.74,17.081,32.74,36.753
				c0,1.424-0.126,2.849-0.258,4.399H86.239c1.68,11.131,9.578,17.342,19.672,17.342c7.635,0,13.069-2.846,18.503-8.151l9.188,8.151
				c-6.466,7.766-15.396,12.813-27.949,12.813C85.849,167.123,70.579,152.759,70.579,131.663z M121.18,126.616
				c-1.037-10.094-6.987-17.989-17.339-17.989c-9.578,0-16.307,7.377-17.734,17.989H121.18z"/>
			<path fill="#273747" d="M145.638,131.663v-0.258c0-22.649,15.396-35.46,31.703-35.46c11.263,0,18.382,5.695,23.3,12.034V71.226
				h15.654v94.472h-15.654V154.31c-5.05,7.119-12.168,12.813-23.3,12.813C161.297,167.123,145.638,154.31,145.638,131.663z
				 M200.899,131.663v-0.258c0-13.2-9.32-21.873-19.803-21.873c-10.741,0-19.672,8.283-19.672,21.873v0.258
				c0,13.2,9.062,21.87,19.672,21.87C191.579,153.533,200.899,144.734,200.899,131.663z"/>
			<path fill="#273747" d="M225.225,140.851V97.367h15.659v38.825c0,10.612,5.308,16.697,14.627,16.697
				c9.057,0,15.401-6.342,15.401-16.955V97.367h15.659v68.332h-15.659v-10.612c-4.402,6.471-10.741,12.037-21.357,12.037
				C234.155,167.123,225.225,156.769,225.225,140.851z"/>
		</g>
		<g>
			<path fill="#273747" d="M447.858,98.452h15.737v10.665c4.424-6.501,10.795-12.094,21.457-12.094
				c15.478,0,24.452,10.403,24.452,26.399v43.7h-15.737v-39.017c0-10.665-5.334-16.777-14.695-16.777
				c-9.107,0-15.478,6.374-15.478,17.036v38.758h-15.737V98.452z"/>
			<path fill="#273747" d="M518.697,98.452h15.737v10.665c4.424-6.501,10.795-12.094,21.457-12.094
				c15.478,0,24.452,10.403,24.452,26.399v43.7h-15.737v-39.017c0-10.665-5.334-16.777-14.695-16.777
				c-9.107,0-15.478,6.374-15.478,17.036v38.758h-15.737V98.452z"/>
			<path fill="#273747" d="M588.827,131.487v-0.259c0-19.639,13.917-35.765,33.553-35.765c21.849,0,32.908,17.166,32.908,36.935
				c0,1.431-0.132,2.863-0.265,4.421h-50.46c1.693,11.186,9.625,17.428,19.769,17.428c7.673,0,13.134-2.86,18.6-8.191l9.234,8.191
				c-6.503,7.805-15.478,12.877-28.093,12.877C604.172,167.123,588.827,152.688,588.827,131.487z M639.678,126.415
				c-1.037-10.144-7.022-18.078-17.425-18.078c-9.625,0-16.388,7.413-17.817,18.078H639.678z"/>
			<path fill="#273747" d="M664.061,131.617v-0.259c0-19.51,15.086-35.895,35.638-35.895c13.001,0,21.065,4.813,27.442,11.834
				l-9.758,10.535c-4.81-5.072-9.885-8.585-17.816-8.585c-11.446,0-19.769,9.885-19.769,21.851v0.259
				c0,12.226,8.456,22.108,20.547,22.108c7.413,0,12.88-3.511,17.822-8.583l9.493,9.363c-6.763,7.543-14.695,12.877-28.093,12.877
				C679.147,167.123,664.061,151.127,664.061,131.617z"/>
			<path fill="#273747" d="M745.142,146.965v-36.154h-8.71V97.283h8.71V78.427h15.737v18.856h18.467v13.528h-18.467v33.683
				c0,6.114,3.122,8.585,8.456,8.585c3.514,0,6.63-0.781,9.752-2.341v12.874c-3.9,2.212-8.324,3.511-14.176,3.511
				C753.338,167.123,745.142,162.051,745.142,146.965z"/>
		</g>
	</g>
	<rect x="0" y="0" fill="none" width="850.394" height="238.269"/>
</g>
</svg>
