<?xml version="1.0" encoding="utf-8"?>
<!-- Generator: Adobe Illustrator 17.0.0, SVG Export Plug-In . SVG Version: 6.00 Build 0)  -->
<!DOCTYPE svg PUBLIC "-//W3C//DTD SVG 1.1//EN" "http://www.w3.org/Graphics/SVG/1.1/DTD/svg11.dtd">
<svg version="1.1" id="Layer_1" xmlns="http://www.w3.org/2000/svg" xmlns:xlink="http://www.w3.org/1999/xlink" x="0px" y="0px"
	 width="24px" height="24px" viewBox="0 0 24 24" enable-background="new 0 0 24 24" xml:space="preserve">
<rect display="none" fill="#A33838" width="24" height="24"/>
<path fill="#010101" d="M20.974,19.954C22.855,17.835,24,15.049,24,12c0-3.173-1.24-6.059-3.257-8.207v0
	c-0.002-0.002-0.004-0.003-0.005-0.005c-2.102-2.234-5.046-3.664-8.321-3.776l0,0l-0.234-0.006C12.121,0.002,12.061,0,12,0
	s-0.121,0.002-0.182,0.004L11.585,0.01l0,0C8.31,0.123,5.365,1.553,3.264,3.787C3.262,3.789,3.259,3.79,3.258,3.792c0,0,0,0,0,0.001
	C1.24,5.941,0,8.827,0,12c0,3.049,1.145,5.835,3.026,7.954c0.002,0.004,0.002,0.008,0.005,0.012c0.007,0.01,0.018,0.015,0.026,0.025
	c2.113,2.362,5.144,3.883,8.527,3.999l0,0l0.233,0.006C11.879,23.998,11.939,24,12,24s0.121-0.002,0.182-0.004l0.233-0.006l0,0
	c3.387-0.116,6.422-1.641,8.534-4.008c0.005-0.007,0.014-0.009,0.019-0.017C20.972,19.962,20.972,19.958,20.974,19.954z
	 M0.838,12.414h4.967c0.047,1.754,0.389,3.458,0.999,5.055c-1.177,0.426-2.302,0.997-3.356,1.709
	C1.897,17.334,0.932,14.983,0.838,12.414z M3.674,4.561c1.03,0.67,2.126,1.206,3.269,1.606c-0.7,1.699-1.087,3.532-1.138,5.419
	H0.838C0.937,8.894,1.991,6.442,3.674,4.561z M23.162,11.586h-4.967c-0.05-1.887-0.438-3.719-1.138-5.419
	c1.143-0.401,2.239-0.937,3.269-1.606C22.009,6.442,23.063,8.894,23.162,11.586z M11.586,6.192C10.39,6.158,9.216,5.979,8.081,5.661
	c0.839-1.721,2.023-3.274,3.505-4.567V6.192z M11.586,7.019v4.567H6.632c0.051-1.799,0.428-3.544,1.103-5.162
	C8.979,6.785,10.271,6.984,11.586,7.019z M12.414,7.019c1.315-0.035,2.607-0.234,3.851-0.595c0.675,1.618,1.052,3.363,1.103,5.162
	h-4.954V7.019z M12.414,6.192V1.094c1.482,1.293,2.666,2.846,3.505,4.567C14.784,5.979,13.61,6.158,12.414,6.192z M16.721,5.409
	c-0.795-1.666-1.898-3.183-3.264-4.483c2.423,0.317,4.603,1.413,6.283,3.028C18.786,4.559,17.775,5.045,16.721,5.409z M7.279,5.409
	c-1.054-0.364-2.065-0.85-3.018-1.455C5.94,2.338,8.12,1.243,10.543,0.926C9.177,2.226,8.074,3.744,7.279,5.409z M6.632,12.414
	h4.954v4.154c-1.368,0.036-2.709,0.25-3.998,0.638C7.006,15.693,6.679,14.077,6.632,12.414z M11.586,17.395v5.511
	C10,21.522,8.756,19.84,7.91,17.975C9.096,17.625,10.329,17.431,11.586,17.395z M12.414,22.906v-5.511
	c1.258,0.035,2.49,0.23,3.676,0.579C15.244,19.84,14,21.522,12.414,22.906z M12.414,16.567v-4.154h4.954
	c-0.047,1.663-0.374,3.279-0.957,4.792C15.123,16.817,13.782,16.604,12.414,16.567z M18.195,12.414h4.967
	c-0.094,2.57-1.059,4.92-2.61,6.765c-1.054-0.713-2.179-1.284-3.356-1.709C17.806,15.872,18.149,14.168,18.195,12.414z M4.01,19.798
	c0.979-0.65,2.021-1.174,3.11-1.565c0.805,1.804,1.96,3.448,3.422,4.841C7.998,22.741,5.72,21.55,4.01,19.798z M13.457,23.074
	c1.462-1.392,2.618-3.036,3.422-4.841c1.089,0.391,2.131,0.914,3.11,1.565C18.28,21.55,16.002,22.741,13.457,23.074z"/>
</svg>
